Coordinates
version=1
nRows=7
nColumns=63
inDegrees=yes

Units are S.I. units (second, meters, Newtons, ...)
If the header above contains a line with 'inDegrees', this indicates whether rotational values are in degrees (yes) or radians (no).

endheader
time	pelvis_tilt	pelvis_list	pelvis_rotation	pelvis_tx	pelvis_ty	pelvis_tz	hip_flexion_r	hip_adduction_r	hip_rotation_r	knee_angle_r	knee_angle_r_beta	ankle_angle_r	subtalar_angle_r	mtp_angle_r	hip_flexion_l	hip_adduction_l	hip_rotation_l	knee_angle_l	knee_angle_l_beta	ankle_angle_l	subtalar_angle_l	mtp_angle_l	L5_S1_Flex_Ext	L5_S1_Lat_Bending	L5_S1_axial_rotation	L4_L5_Flex_Ext	L4_L5_Lat_Bending	L4_L5_axial_rotation	L3_L4_Flex_Ext	L3_L4_Lat_Bending	L3_L4_axial_rotation	L2_L3_Flex_Ext	L2_L3_Lat_Bending	L2_L3_axial_rotation	L1_L2_Flex_Ext	L1_L2_Lat_Bending	L1_L2_axial_rotation	L1_T12_Flex_Ext	L1_T12_Lat_Bending	L1_T12_axial_rotation	Abs_r3	Abs_r2	Abs_r1	Abs_t1	Abs_t2	neck_flexion	neck_bending	neck_rotation	arm_flex_r	arm_add_r	arm_rot_r	elbow_flex_r	pro_sup_r	wrist_flex_r	wrist_dev_r	arm_flex_l	arm_add_l	arm_rot_l	elbow_flex_l	pro_sup_l	wrist_flex_l	wrist_dev_l
      5.06666667	      5.13104483	     -1.97278884	    175.64826939	      2.70155080	      0.88745980	      0.61990603	     13.82960498	     -1.37994043	     -1.84716205	     23.75488509	      0.41460096	     23.73865002	     -4.01511364	      0.00000000	      8.67204855	      3.07433296	      4.60151240	     15.43494103	      0.26939054	     17.71768433	    -18.85408974	      0.00000000	     -0.00532844	     -0.45371875	     -1.14529751	     -0.00989544	     -0.60344593	     -1.21687861	     -0.00875409	     -1.10317176	     -1.21687861	     -0.00608987	     -1.10317176	     -1.00213533	     -0.00494799	     -0.92522327	     -0.93055423	     -0.00304467	     -0.70281034	     -0.85897314	     -0.03806049	     -5.13255722	     -6.36980119	      0.00000000	      0.00000000	      0.00000000	      0.00000000	     -0.00000000	      3.99266650	    -11.93822676	     79.16785638	     20.68809643	     52.75006909	      0.00000000	      5.00000014	    -18.10255493	      3.69757202	    -27.87550830	     26.59702766	     45.77473516	      0.00000000	      5.00000014
      5.10000000	      5.15451767	     -1.94865926	    175.73546836	      2.70162145	      0.88746730	      0.61978516	     14.10715086	     -1.47806594	     -2.38002820	     24.26285516	      0.42346671	     23.77691916	     -3.43570555	      0.00000000	      8.55034688	      3.06848721	      4.70618303	     15.08146359	      0.26322120	     17.82361683	    -18.84274444	      0.00000000	     -0.00412960	     -0.44824394	     -1.15079504	     -0.00766908	     -0.59616444	     -1.22271973	     -0.00678452	     -1.08986031	     -1.22271973	     -0.00471972	     -1.08986031	     -1.00694566	     -0.00383475	     -0.91405904	     -0.93502097	     -0.00235965	     -0.69432986	     -0.86309628	     -0.02949733	     -5.07062508	     -6.40037675	      0.00000000	      0.00000000	      0.00000000	      0.00000000	     -0.00000000	      3.95526023	    -11.91644761	     79.26980002	     20.61587498	     52.50846055	      0.00000000	      5.00000014	    -18.11577007	      3.59085604	    -27.71111076	     26.56146089	     45.76273205	      0.00000000	      5.00000014
      5.13333333	      5.19892217	     -1.81883083	    175.84254181	      2.70187008	      0.88739753	      0.61990097	     14.34861633	     -1.50076839	     -2.85404318	     24.65087582	      0.43023895	     23.79825489	     -2.76895731	      0.00000000	      8.56520328	      2.96528986	      4.85816142	     14.99096688	      0.26164173	     17.90288269	    -18.80871471	      0.00000000	     -0.00353574	     -0.42592501	     -1.15997145	     -0.00656622	     -0.56648026	     -1.23246966	     -0.00580887	     -1.03559406	     -1.23246966	     -0.00404100	     -1.03559406	     -1.01497502	     -0.00328329	     -0.86854628	     -0.94247680	     -0.00202032	     -0.65975784	     -0.86997859	     -0.02525544	     -4.81814888	     -6.45141320	      0.00000000	      0.00000000	      0.00000000	      0.00000000	     -0.00000000	      3.93132082	    -11.98254737	     79.32871338	     20.59830132	     52.31113312	      0.00000000	      5.00000014	    -18.15601136	      3.43492653	    -27.24870176	     26.55112130	     45.82874150	      0.00000000	      5.00000014
      5.16666667	      5.18604219	     -1.73954433	    176.02406303	      2.70205616	      0.88738359	      0.62018497	     14.46140694	     -1.85769850	     -4.59909850	     25.00505306	      0.43642051	     24.23531734	     -0.36319166	      0.00000000	      8.37482152	      2.93294140	      5.29511526	     14.67279857	      0.25608865	     17.76972600	    -18.81246661	      0.00000000	     -0.00389112	     -0.40132958	     -1.18143333	     -0.00722621	     -0.53376834	     -1.25527292	     -0.00639273	     -0.97579273	     -1.25527292	     -0.00444717	     -0.97579273	     -1.03375417	     -0.00361330	     -0.81839127	     -0.95991458	     -0.00222339	     -0.62165951	     -0.88607500	     -0.02779392	     -4.53992044	     -6.57077776	      0.00000000	      0.00000000	      0.00000000	      0.00000000	     -0.00000000	      4.06798893	    -12.07417954	     80.30090173	     20.53771691	     51.91355482	      0.00000000	      5.00000014	    -18.40329995	      1.99190762	    -20.87994901	     26.13497530	     46.99667465	      0.00000000	      5.00000014
      5.20000000	      5.17309837	     -1.43817957	    176.16123069	      2.70238557	      0.88742529	      0.62020386	     14.25848183	     -1.40336468	     -4.18761645	     24.61274782	      0.42957349	     23.67720116	     -1.47328680	      0.00000000	      8.27073234	      2.62046139	      5.68592869	     14.64942615	      0.25568072	     17.60657338	    -18.73588740	      0.00000000	     -0.00314529	     -0.34996129	     -1.17687686	     -0.00584112	     -0.46544852	     -1.25043166	     -0.00516740	     -0.85089588	     -1.25043166	     -0.00359476	     -0.85089588	     -1.02976725	     -0.00292072	     -0.71364107	     -0.95621245	     -0.00179722	     -0.54209004	     -0.88265764	     -0.02246652	     -3.95883212	     -6.54543601	      0.00000000	      0.00000000	      0.00000000	      0.00000000	     -0.00000000	      4.04409576	    -12.18078640	     80.42437274	     20.42335174	     51.61598435	      0.00000000	      5.00000014	    -18.36442294	      0.92946218	    -16.40271313	     25.72444102	     47.72645594	      0.00000000	      5.00000014
      5.23333333	      5.03519645	     -1.17485021	    176.22619540	      2.70247304	      0.88769145	      0.62008217	     13.62265768	     -0.94514575	     -3.90127519	     23.66146598	      0.41297049	     23.21660148	     -2.26797375	      0.00000000	      7.86775955	      2.30797707	      5.94723334	     14.37818074	      0.25094659	     17.21958324	    -18.60611689	      0.00000000	     -0.00305588	     -0.30389845	     -1.13428613	     -0.00567507	     -0.40418493	     -1.20517902	     -0.00502050	     -0.73889868	     -1.20517902	     -0.00349256	     -0.73889868	     -0.99250037	     -0.00283769	     -0.61970971	     -0.92160748	     -0.00174613	     -0.47073869	     -0.85071460	     -0.02182782	     -3.43776002	     -6.30855919	      0.00000000	      0.00000000	      0.00000000	      0.00000000	     -0.00000000	      3.91744402	    -12.22664305	     80.35958880	     20.18587248	     51.63894283	      0.00000000	      5.00000014	    -18.16971547	      0.60737560	    -15.41623498	     25.46839963	     47.95050045	      0.00000000	      5.00000014
      5.26666667	      4.85442387	     -1.16037394	    176.34583959	      2.70281284	      0.88812734	      0.61967613	     12.87162628	      0.05379279	      0.22776554	     22.41685949	      0.39124801	     21.35696474	     -9.04880216	      0.00000000	      7.45925548	      2.21823927	      6.16103631	     14.09904862	      0.24607482	     16.78202680	    -18.44103275	      0.00000000	     -0.00361925	     -0.29014970	     -1.07220212	     -0.00672131	     -0.38589910	     -1.13921475	     -0.00594606	     -0.70546998	     -1.13921475	     -0.00413644	     -0.70546998	     -0.93817685	     -0.00336083	     -0.59167327	     -0.87116422	     -0.00206804	     -0.44944189	     -0.80415159	     -0.02585193	     -3.28223144	     -5.96326651	      0.00000000	      0.00000000	      0.00000000	      0.00000000	     -0.00000000	      3.59960313	    -12.14834172	     79.47012377	     20.06345922	     51.67083883	      0.00000000	      5.00000014	    -17.72974928	     -0.47850000	    -10.99192359	     24.76030271	     48.96334328	      0.00000000	      5.00000014
